<?xml version="1.0" encoding="UTF-8" standalone="no"?>
<svg
   xmlns:dc="http://purl.org/dc/elements/1.1/"
   xmlns:cc="http://creativecommons.org/ns#"
   xmlns:rdf="http://www.w3.org/1999/02/22-rdf-syntax-ns#"
   xmlns:svg="http://www.w3.org/2000/svg"
   xmlns="http://www.w3.org/2000/svg"
   xmlns:xlink="http://www.w3.org/1999/xlink"
   xmlns:sodipodi="http://sodipodi.sourceforge.net/DTD/sodipodi-0.dtd"
   xmlns:inkscape="http://www.inkscape.org/namespaces/inkscape"
   version="1.1"
   id="Layer_1"
   x="0px"
   y="0px"
   viewBox="0 0 213.333 203.071"
   style="enable-background:new 0 0 213.333 203.071;"
   xml:space="preserve"
   sodipodi:docname="character.svg"
   inkscape:version="0.92.4 (5da689c313, 2019-01-14)"><metadata
   id="metadata3903"><rdf:RDF><cc:Work
       rdf:about=""><dc:format>image/svg+xml</dc:format><dc:type
         rdf:resource="http://purl.org/dc/dcmitype/StillImage" /></cc:Work></rdf:RDF></metadata><defs
   id="defs3901" /><sodipodi:namedview
   pagecolor="#ffffff"
   bordercolor="#666666"
   borderopacity="1"
   objecttolerance="10"
   gridtolerance="10"
   guidetolerance="10"
   inkscape:pageopacity="0"
   inkscape:pageshadow="2"
   inkscape:window-width="768"
   inkscape:window-height="464"
   id="namedview3899"
   showgrid="false"
   inkscape:zoom="4.845596"
   inkscape:cx="182.47479"
   inkscape:cy="146.98421"
   inkscape:window-x="299"
   inkscape:window-y="152"
   inkscape:window-maximized="0"
   inkscape:current-layer="nonFeet" />
<style
   type="text/css"
   id="style3828">
	.st0{fill:#BFD54C;}
	.st1{fill:none;}
	.st2{fill:#F0FCB4;}
	.st3{fill:#BFD83E;}
	.st4{fill:#414042;}
	.st5{fill:#FFFFFF;}
	.st6{fill:#899A30;}
	.st7{fill:#E8E8E8;}
</style>
<script
   xlink:href="https://cdnjs.cloudflare.com/ajax/libs/snap.svg/0.4.1/snap.svg-min.js"
   id="script132" />

<script
   xlink:href="animation.js"
   id="script7" />
	
	
	
	
	
	
	
	
	
	
	
	
	
	
	
	
	
	
	
	
	
	
	
	
	
	
	
	
	
	
	<path
   id="XMLID_332_"
   class="st3"
   d="m 88.903,192.948 c -0.425,-0.238 -0.902,-0.461 -1.524,-0.704 l -0.157,-0.057 c -0.307,-0.112 -0.62,-0.212 -0.993,-0.314 -0.119,-0.031 -0.237,-0.064 -0.368,-0.094 -0.283,-0.066 -0.573,-0.116 -0.876,-0.161 l -0.424,-0.068 c -0.45,-0.051 -0.868,-0.077 -1.26,-0.078 h -0.094 c -0.397,0.001 -0.814,0.027 -1.273,0.078 l -0.422,0.067 c -0.298,0.045 -0.593,0.096 -0.888,0.163 l -0.412,0.107 c -0.316,0.086 -0.625,0.184 -0.924,0.294 l -0.285,0.102 c -0.505,0.199 -0.979,0.423 -1.411,0.663 -2.082,1.166 -3.716,2.92 -4.741,4.985 -0.271,0.546 0.129,1.191 0.738,1.191 h 19.313 c 0.609,0 1.009,-0.645 0.738,-1.191 -1.023,-2.063 -2.656,-3.817 -4.737,-4.983 z"
   inkscape:connector-curvature="0"
   style="fill:#bfd83e" />
	<path
   id="XMLID_14_"
   class="st2"
   d="m 79.263,195.265 c -1.297,0.842 -2.335,1.593 -2.766,0.93 -0.43,-0.663 0.272,-1.884 1.57,-2.725 1.298,-0.841 2.698,-0.986 3.128,-0.323 0.431,0.664 -0.635,1.276 -1.932,2.118 z"
   inkscape:connector-curvature="0"
   style="fill:#f0fcb4" />
	
	<path
   id="XMLID_28_"
   class="st4"
   d="m 90.833,189.504 c -0.608,-0.34 -1.242,-0.636 -1.897,-0.893 -0.12,-0.047 -0.243,-0.089 -0.365,-0.133 -0.41,-0.15 -0.827,-0.283 -1.252,-0.398 -0.189,-0.051 -0.377,-0.102 -0.569,-0.146 -0.384,-0.089 -0.775,-0.158 -1.17,-0.217 -0.193,-0.029 -0.383,-0.066 -0.578,-0.088 -0.559,-0.063 -1.126,-0.101 -1.702,-0.103 -0.018,0 -0.036,-0.003 -0.054,-0.003 -0.017,0 -0.033,0.002 -0.05,0.002 -0.577,0.002 -1.145,0.04 -1.706,0.103 -0.194,0.022 -0.383,0.059 -0.575,0.088 -0.396,0.06 -0.788,0.129 -1.173,0.218 -0.191,0.044 -0.379,0.095 -0.567,0.146 -0.425,0.115 -0.842,0.249 -1.252,0.398 -0.122,0.045 -0.246,0.087 -0.366,0.134 -0.653,0.257 -1.287,0.552 -1.893,0.891 -4.519,2.531 -7.65,7.247 -7.944,12.722 -0.025,0.462 0.361,0.848 0.824,0.848 H 97.95 c 0.463,0 0.849,-0.386 0.824,-0.848 -0.294,-5.475 -3.423,-10.19 -7.941,-12.721 z m -17.981,8.428 c 1.024,-2.064 2.659,-3.819 4.741,-4.985 0.431,-0.24 0.906,-0.464 1.411,-0.663 l 0.285,-0.102 c 0.299,-0.111 0.608,-0.208 0.924,-0.294 l 0.412,-0.107 c 0.294,-0.067 0.589,-0.118 0.888,-0.163 l 0.422,-0.067 c 0.459,-0.051 0.875,-0.077 1.273,-0.078 h 0.094 c 0.392,10e-4 0.81,0.027 1.26,0.078 l 0.424,0.068 c 0.303,0.045 0.593,0.095 0.876,0.161 0.131,0.03 0.249,0.063 0.368,0.094 0.274,0.074 0.511,0.15 0.741,0.228 0.084,0.029 0.17,0.056 0.252,0.086 l 0.157,0.057 c 0.622,0.243 1.099,0.467 1.524,0.704 2.081,1.166 3.714,2.919 4.739,4.983 0.271,0.546 -0.129,1.191 -0.738,1.191 H 85.216 73.591 c -0.61,-10e-4 -1.01,-0.645 -0.739,-1.191 z"
   inkscape:connector-curvature="0"
   style="fill:#414042" />
	
	
	
	
	
	
	
	
	
	<path
   id="XMLID_64_"
   class="st3"
   d="m 137.824,192.948 c -0.425,-0.238 -0.902,-0.461 -1.524,-0.704 l -0.157,-0.057 c -0.307,-0.112 -0.62,-0.212 -0.993,-0.314 -0.119,-0.031 -0.237,-0.064 -0.368,-0.094 -0.283,-0.066 -0.573,-0.116 -0.876,-0.161 l -0.424,-0.068 c -0.45,-0.051 -0.868,-0.077 -1.26,-0.078 h -0.094 c -0.397,0.001 -0.814,0.027 -1.273,0.078 l -0.422,0.067 c -0.298,0.045 -0.593,0.096 -0.888,0.163 l -0.412,0.107 c -0.316,0.086 -0.625,0.184 -0.924,0.294 l -0.285,0.102 c -0.505,0.199 -0.979,0.423 -1.411,0.663 -2.082,1.166 -3.716,2.92 -4.741,4.985 -0.271,0.546 0.129,1.191 0.738,1.191 h 19.313 c 0.609,0 1.009,-0.645 0.738,-1.191 -1.023,-2.063 -2.656,-3.817 -4.737,-4.983 z"
   inkscape:connector-curvature="0"
   style="fill:#bfd83e" />
	<path
   id="XMLID_57_"
   class="st2"
   d="m 128.184,195.265 c -1.297,0.842 -2.335,1.593 -2.766,0.93 -0.43,-0.663 0.272,-1.884 1.57,-2.725 1.297,-0.842 2.698,-0.986 3.128,-0.323 0.431,0.664 -0.635,1.276 -1.932,2.118 z"
   inkscape:connector-curvature="0"
   style="fill:#f0fcb4" />
	
	
	
	
	
	
	
	
	
	
	
	
	<path
   id="XMLID_230_"
   class="st6"
   d="m 88.903,192.948 c -0.426,-0.238 -0.902,-0.461 -1.524,-0.704 l -0.157,-0.057 c -0.082,-0.03 -0.168,-0.057 -0.252,-0.086 1.434,1.033 2.668,2.347 3.59,3.856 0.157,0.257 0.311,0.539 0.298,0.84 -0.015,0.366 -0.279,0.684 -0.595,0.867 -0.316,0.184 -0.683,0.258 -1.04,0.335 -1.358,0.291 -2.691,0.684 -4.008,1.123 h 7.689 c 0.609,0 1.009,-0.645 0.738,-1.191 -1.025,-2.063 -2.658,-3.817 -4.739,-4.983 z"
   inkscape:connector-curvature="0"
   style="fill:#899a30" />
	<path
   id="XMLID_232_"
   class="st6"
   d="m 137.824,192.948 c -0.425,-0.238 -0.902,-0.461 -1.525,-0.704 l -0.157,-0.057 c -0.082,-0.03 -0.168,-0.057 -0.252,-0.086 1.434,1.033 2.668,2.347 3.59,3.856 0.157,0.257 0.311,0.539 0.298,0.84 -0.015,0.366 -0.279,0.684 -0.595,0.867 -0.316,0.184 -0.683,0.258 -1.04,0.335 -1.358,0.291 -2.691,0.684 -4.008,1.123 h 7.689 c 0.61,0 1.009,-0.645 0.738,-1.191 -1.024,-2.063 -2.657,-3.817 -4.738,-4.983 z"
   inkscape:connector-curvature="0"
   style="fill:#899a30" />
	<path
   id="XMLID_58_"
   class="st4"
   d="m 139.754,189.504 c -0.608,-0.34 -1.242,-0.636 -1.897,-0.893 -0.12,-0.047 -0.243,-0.089 -0.365,-0.133 -0.41,-0.15 -0.827,-0.283 -1.252,-0.398 -0.189,-0.051 -0.377,-0.102 -0.569,-0.146 -0.384,-0.089 -0.775,-0.158 -1.17,-0.217 -0.193,-0.029 -0.383,-0.066 -0.578,-0.088 -0.559,-0.063 -1.126,-0.101 -1.702,-0.103 -0.018,0 -0.036,-0.003 -0.054,-0.003 -0.017,0 -0.033,0.002 -0.05,0.002 -0.577,0.002 -1.145,0.04 -1.706,0.103 -0.194,0.022 -0.383,0.059 -0.575,0.088 -0.396,0.06 -0.788,0.129 -1.173,0.218 -0.191,0.044 -0.379,0.095 -0.567,0.146 -0.425,0.115 -0.842,0.249 -1.252,0.398 -0.122,0.045 -0.246,0.087 -0.366,0.134 -0.653,0.257 -1.287,0.552 -1.893,0.891 -4.519,2.531 -7.65,7.247 -7.944,12.722 -0.025,0.462 0.361,0.848 0.824,0.848 h 29.407 c 0.463,0 0.849,-0.386 0.824,-0.848 -0.295,-5.475 -3.424,-10.19 -7.942,-12.721 z m -17.981,8.428 c 1.024,-2.064 2.659,-3.819 4.741,-4.985 0.431,-0.24 0.906,-0.464 1.411,-0.663 l 0.285,-0.102 c 0.299,-0.111 0.608,-0.208 0.924,-0.294 l 0.412,-0.107 c 0.294,-0.067 0.589,-0.118 0.888,-0.163 l 0.422,-0.067 c 0.459,-0.051 0.875,-0.077 1.273,-0.078 h 0.094 c 0.392,10e-4 0.81,0.027 1.26,0.078 l 0.424,0.068 c 0.303,0.045 0.593,0.095 0.876,0.161 0.131,0.03 0.249,0.063 0.368,0.094 0.274,0.074 0.511,0.15 0.741,0.228 0.084,0.029 0.17,0.056 0.252,0.086 l 0.157,0.057 c 0.622,0.243 1.099,0.467 1.525,0.704 2.081,1.166 3.714,2.919 4.739,4.983 0.271,0.546 -0.129,1.191 -0.738,1.191 h -7.689 -11.624 c -0.612,-10e-4 -1.012,-0.645 -0.741,-1.191 z"
   inkscape:connector-curvature="0"
   style="fill:#414042" />
	
	
	
	
	
<g
   id="nonFeet"
   inkscape:label="#g271"><path
     style="fill:#bfd54c"
     inkscape:connector-curvature="0"
     d="m 83.247,163.536 c 5.616,0 10.388,3.642 12.106,8.684 h 24.71 c 1.718,-5.042 6.489,-8.684 12.105,-8.684 5.616,0 10.388,3.642 12.106,8.684 h 1.909 c 4.687,-4.111 8.853,-84.046 8.853,-84.046 V 66.148 c 0,-0.715 -0.459,-1.346 -1.117,-1.535 -0.862,-0.256 -1.71,-0.49 -2.545,-0.714 -7.928,-2.185 -15.865,-3.828 -23.598,-4.885 -1.292,-0.179 -2.576,-0.346 -3.86,-0.489 -5.198,-0.597 -10.509,-0.942 -15.79,-1.027 -0.736,-0.015 -1.463,-0.025 -2.19,-0.025 -0.434,0 -0.867,0.004 -1.301,0.013 -5.232,0.025 -10.545,0.329 -15.81,0.906 -1.231,0.131 -2.452,0.285 -3.673,0.452 -7.879,1.055 -15.782,2.762 -23.494,5.074 -0.656,0.187 -1.263,0.37 -1.868,0.565 -0.741,0.23 -1.214,0.845 -1.214,1.568 v 45.236 59.316 c 0,0.891 0.72,1.616 1.604,1.616 h 10.962 c 1.717,-5.042 6.489,-8.683 12.105,-8.683 z"
     class="st0"
     id="XMLID_191_" /><path
     style="fill:none"
     inkscape:connector-curvature="0"
     d="m 139.247,107.205 v -8.659 c 0,-3.178 -1.807,-6.11 -4.606,-7.468 0,0 -31.954,-9.446 -58.708,1.833 -1.176,1.465 -1.847,3.296 -1.847,5.221 v 14.423 c 0,3.737 2.541,7.056 6.18,8.071 5.041,1.407 10.102,2.395 15.172,2.992 27.87,-2.209 39.496,-11.434 43.809,-16.413 z"
     class="st1"
     id="XMLID_4_" /><path
     style="fill:#f0fcb4"
     inkscape:connector-curvature="0"
     d="m 88.824,58.392 c -1.231,0.131 -2.452,0.285 -3.673,0.452 -7.879,1.055 -15.782,2.762 -23.494,5.074 -0.656,0.187 -1.263,0.37 -1.868,0.565 -0.741,0.23 -1.214,0.845 -1.214,1.568 v 45.236 l 7.638,-37.642 c 2.642,-7.594 39.722,-16.171 39.722,-16.171 -0.434,0 -0.867,0.004 -1.301,0.013 -5.231,0.024 -10.545,0.328 -15.81,0.905 z"
     class="st2"
     id="XMLID_100_" /><path
     style="fill:none"
     inkscape:connector-curvature="0"
     d="m 89.223,197.999 c 0.358,-0.077 0.724,-0.151 1.04,-0.335 0.316,-0.184 0.58,-0.502 0.595,-0.867 0.012,-0.301 -0.141,-0.583 -0.298,-0.84 -0.922,-1.509 -2.156,-2.823 -3.59,-3.856 -0.23,-0.078 -0.467,-0.153 -0.741,-0.228 -0.119,-0.031 -0.237,-0.064 -0.368,-0.094 -0.283,-0.066 -0.573,-0.116 -0.876,-0.161 l -0.424,-0.068 c -0.45,-0.051 -0.868,-0.077 -1.26,-0.078 h -0.094 c -0.397,0.001 -0.814,0.027 -1.273,0.078 l -0.422,0.067 c -0.298,0.045 -0.593,0.096 -0.888,0.163 l -0.412,0.107 c -0.316,0.086 -0.625,0.184 -0.924,0.294 l -0.285,0.102 c -0.504,0.199 -0.979,0.423 -1.411,0.663 -2.082,1.166 -3.716,2.92 -4.741,4.985 -0.271,0.546 0.129,1.191 0.738,1.191 h 11.624 c 1.319,-0.439 2.652,-0.832 4.01,-1.123 z"
     class="st1"
     id="XMLID_11_" /><path
     style="fill:#414042"
     inkscape:connector-curvature="0"
     d="m 126.478,188.61 c 0.121,-0.048 0.244,-0.089 0.366,-0.134 -0.122,0.045 -0.245,0.086 -0.366,0.134 z"
     class="st4"
     id="XMLID_315_" /><path
     style="fill:#414042"
     inkscape:connector-curvature="0"
     d="m 137.492,188.477 c 0.122,0.044 0.245,0.086 0.365,0.133 -0.121,-0.048 -0.243,-0.089 -0.365,-0.133 z"
     class="st4"
     id="XMLID_308_" /><path
     style="fill:#ffffff"
     inkscape:connector-curvature="0"
     d="m 135.671,187.932 c 0.191,0.044 0.38,0.095 0.569,0.146 -0.189,-0.051 -0.378,-0.102 -0.569,-0.146 z"
     class="st5"
     id="XMLID_295_" /><path
     style="fill:#414042"
     inkscape:connector-curvature="0"
     d="m 135.671,187.932 c 0.191,0.044 0.38,0.095 0.569,0.146 -0.189,-0.051 -0.378,-0.102 -0.569,-0.146 z"
     class="st4"
     id="XMLID_284_" /><path
     style="fill:#414042"
     inkscape:connector-curvature="0"
     d="m 128.096,188.078 c 0.188,-0.051 0.376,-0.102 0.567,-0.146 -0.19,0.044 -0.378,0.095 -0.567,0.146 z"
     class="st4"
     id="XMLID_277_" /><path
     style="fill:#ffffff"
     inkscape:connector-curvature="0"
     d="m 132.222,187.524 c -0.018,0 -0.035,-0.003 -0.053,-0.003 -0.017,0 -0.033,0.003 -0.05,0.003 0.017,0 0.033,-0.002 0.05,-0.002 0.017,-0.001 0.034,0.002 0.053,0.002 z"
     class="st5"
     id="XMLID_272_" /><path
     style="fill:#414042"
     inkscape:connector-curvature="0"
     d="m 132.222,187.524 c -0.018,0 -0.035,-0.003 -0.053,-0.003 -0.017,0 -0.033,0.003 -0.05,0.003 0.017,0 0.033,-0.002 0.05,-0.002 0.017,-0.001 0.034,0.002 0.053,0.002 z"
     class="st4"
     id="XMLID_259_" /><path
     style="fill:#414042"
     inkscape:connector-curvature="0"
     d="m 129.837,187.715 c 0.192,-0.029 0.381,-0.066 0.575,-0.088 -0.194,0.022 -0.383,0.059 -0.575,0.088 z"
     class="st4"
     id="XMLID_236_" /><path
     style="fill:#414042"
     inkscape:connector-curvature="0"
     d="m 133.923,187.627 c 0.195,0.022 0.385,0.059 0.578,0.088 -0.192,-0.029 -0.383,-0.066 -0.578,-0.088 z"
     class="st4"
     id="XMLID_166_" /><path
     style="fill:none"
     inkscape:connector-curvature="0"
     d="m 138.144,197.999 c 0.358,-0.077 0.724,-0.151 1.04,-0.335 0.316,-0.184 0.58,-0.502 0.595,-0.867 0.012,-0.301 -0.141,-0.583 -0.298,-0.84 -0.922,-1.509 -2.155,-2.823 -3.59,-3.856 -0.23,-0.078 -0.467,-0.153 -0.741,-0.228 -0.119,-0.031 -0.237,-0.064 -0.368,-0.094 -0.283,-0.066 -0.573,-0.116 -0.876,-0.161 l -0.424,-0.068 c -0.45,-0.051 -0.868,-0.077 -1.26,-0.078 h -0.094 c -0.397,0.001 -0.814,0.027 -1.273,0.078 l -0.422,0.067 c -0.298,0.045 -0.593,0.096 -0.888,0.163 l -0.412,0.107 c -0.316,0.086 -0.625,0.184 -0.924,0.294 l -0.285,0.102 c -0.505,0.199 -0.979,0.423 -1.411,0.663 -2.082,1.166 -3.716,2.92 -4.741,4.985 -0.271,0.546 0.129,1.191 0.738,1.191 h 11.624 c 1.319,-0.439 2.652,-0.832 4.01,-1.123 z"
     class="st1"
     id="XMLID_24_" /><path
     style="fill:#414042"
     inkscape:connector-curvature="0"
     d="m 120.063,172.219 h -24.71 c 0.44,1.292 0.69,2.672 0.69,4.111 v 3.043 h 23.331 v -3.043 c -10e-4,-1.439 0.248,-2.818 0.689,-4.111 z"
     class="st4"
     id="XMLID_193_" /><path
     style="fill:#414042"
     d="m 103.96094,50.341797 c -5.24901,0.044 -10.595299,0.3545 -15.904299,0.9375 -1.29,0.137 -2.579282,0.300609 -3.863282,0.474609 -8.248,1.105 -16.510062,2.887875 -24.539062,5.296875 -0.687,0.194 -1.374438,0.400375 -2.023438,0.609375 -3.714,1.154 -6.208984,4.526625 -6.208984,8.390625 v 75.388669 7.9961 21.16797 c 0,4.836 3.928812,8.76953 8.757813,8.76953 h 7.515624 2.75586 v -3.04297 c 0,-1.439 0.249453,-2.81933 0.689453,-4.11133 H 60.179688 c -0.884001,0 -1.605469,-0.72423 -1.605469,-1.61523 V 111.28711 66.050781 c 0,-0.723 0.472845,-1.338359 1.214843,-1.568359 0.606001,-0.195 1.211188,-0.377453 1.867188,-0.564453 7.712,-2.313 15.615141,-4.020219 23.494141,-5.074219 1.221,-0.166 2.442828,-0.319172 3.673828,-0.451172 5.265,-0.577 10.578535,-0.88125 15.810551,-0.90625 0.434,-0.009 0.86678,-0.01367 1.30078,-0.01367 0.727,0 1.45245,0.01039 2.18945,0.02539 5.281,0.085 10.59106,0.430344 15.78906,1.027344 1.284,0.143 2.57033,0.309281 3.86133,0.488281 7.733,1.057 15.66966,2.699762 23.59766,4.884766 0.835,0.223996 1.68292,0.458843 2.54492,0.714843 0.657,0.189 1.11719,0.819157 1.11719,1.535157 v 22.02539 82.429691 c 0,0.891 -0.72424,1.61523 -1.61524,1.61523 h -7.23828 -1.9082 c 0.44,1.292 0.68945,2.67233 0.68945,4.11133 v 3.04297 h 5.125 3.33203 c 4.836,0 8.76953,-3.93453 8.76953,-8.76953 V 128.3418 66.148438 c 0,-3.882 -2.58339,-7.340251 -6.27539,-8.40625 -0.893,-0.264002 -1.80001,-0.516047 -2.66601,-0.748047 -8.209,-2.263 -16.4511,-3.966407 -24.4961,-5.066407 -1.35,-0.187 -2.6992,-0.362718 -4.0332,-0.511718 -4.216,-0.484 -8.5012,-0.804797 -12.7832,-0.966797 z"
     id="path4623" /><path
     inkscape:connector-curvature="0"
     id="path4044"
     d="M 111.935,50.449 V 30.618"
     style="fill:#414042" /><path
     style="fill:#414042"
     inkscape:connector-curvature="0"
     d="m 92.093,176.33 c 0,-4.886 -3.961,-8.846 -8.846,-8.846 -4.886,0 -8.846,3.961 -8.846,8.846 v 10.12 c 0,0.007 0.001,0.013 0.001,0.02 2.639,-1.412 5.649,-2.218 8.846,-2.218 3.196,0 6.206,0.806 8.845,2.218 0,-0.007 10e-4,-0.013 10e-4,-0.02 v -10.12 z"
     class="st4"
     id="XMLID_217_" /><path
     style="fill:#414042"
     inkscape:connector-curvature="0"
     d="m 141.014,176.33 c 0,-4.886 -3.961,-8.846 -8.846,-8.846 -4.886,0 -8.846,3.961 -8.846,8.846 v 10.12 c 0,0.007 10e-4,0.013 10e-4,0.02 2.639,-1.412 5.649,-2.218 8.846,-2.218 3.196,0 6.206,0.806 8.845,2.218 0,-0.007 10e-4,-0.013 10e-4,-0.02 v -10.12 z"
     class="st4"
     id="XMLID_225_" /><path
     style="fill:#899a30"
     inkscape:connector-curvature="0"
     d="m 153.42,172.219 c 0.891,0 1.615,-0.725 1.615,-1.616 v -82.43 c 0,0 -4.167,79.935 -8.853,84.046 z"
     class="st6"
     id="XMLID_226_" /><g
     id="leftHand"
     inkscape:label="#g4638"><path
       id="XMLID_133_"
       class="st0"
       d="m 24.58,95.149 c 0,-4.892 -3.98,-8.872 -8.873,-8.872 -4.892,0 -8.873,3.98 -8.873,8.872 0,4.892 3.98,8.873 8.873,8.873 4.893,-0.001 8.873,-3.981 8.873,-8.873 z"
       inkscape:connector-curvature="0"
       style="fill:#bfd54c" /><path
       id="XMLID_158_"
       class="st2"
       d="m 15.196,88.917 c 0.654,0.99 -0.549,1.439 -1.836,2.289 -1.287,0.85 -2.172,1.78 -2.826,0.79 -0.654,-0.99 -0.14,-2.482 1.147,-3.333 1.287,-0.851 2.861,-0.736 3.515,0.254 z"
       inkscape:connector-curvature="0"
       style="fill:#f0fcb4" /><path
       id="XMLID_29_"
       class="st1"
       d="m 24.58,95.149 c 0,-4.892 -3.98,-8.872 -8.873,-8.872 -4.893,0 -8.873,3.98 -8.873,8.872 0,4.892 3.98,8.873 8.873,8.873 4.893,0 8.873,-3.981 8.873,-8.873 z"
       inkscape:connector-curvature="0"
       style="fill:none" /><path
       id="XMLID_5_"
       class="st1"
       d="m 17.569,100.55 c 2.708,-2.274 4.112,-5.725 5.123,-9.114 0.125,-0.418 0.243,-0.852 0.336,-1.29 -1.6,-2.334 -4.284,-3.869 -7.321,-3.869 -4.892,0 -8.873,3.98 -8.873,8.872 0,3.738 2.327,6.937 5.607,8.242 1.821,-0.769 3.623,-1.578 5.128,-2.841 z"
       inkscape:connector-curvature="0"
       style="fill:none" /><path
       id="XMLID_17_"
       class="st1"
       d="m 24.58,95.149 c 0,-1.855 -0.574,-3.577 -1.552,-5.003 -1.6,-2.334 -4.284,-3.869 -7.321,-3.869 -4.892,0 -8.873,3.98 -8.873,8.872 0,3.738 2.327,6.937 5.607,8.242 1.012,0.403 2.112,0.631 3.266,0.631 4.893,-0.001 8.873,-3.981 8.873,-8.873 z"
       inkscape:connector-curvature="0"
       style="fill:none" /><path
       id="XMLID_104_"
       class="st1"
       d="m 24.58,95.149 c 0,-1.855 -0.574,-3.577 -1.552,-5.003 -1.6,-2.334 -4.284,-3.869 -7.321,-3.869 -4.892,0 -8.873,3.98 -8.873,8.872 0,3.738 2.327,6.937 5.607,8.242 1.012,0.403 2.112,0.631 3.266,0.631 4.893,-0.001 8.873,-3.981 8.873,-8.873 z"
       inkscape:connector-curvature="0"
       style="fill:none" /><path
       id="XMLID_167_"
       class="st1"
       d="m 24.58,95.149 c 0,-1.855 -0.574,-3.577 -1.552,-5.003 -1.6,-2.334 -4.284,-3.869 -7.321,-3.869 -4.892,0 -8.873,3.98 -8.873,8.872 0,3.738 2.327,6.937 5.607,8.242 1.012,0.403 2.112,0.631 3.266,0.631 4.893,-0.001 8.873,-3.981 8.873,-8.873 z"
       inkscape:connector-curvature="0"
       style="fill:none" /><path
       id="XMLID_134_"
       class="st1"
       d="m 24.58,95.149 c 0,-1.855 -0.574,-3.577 -1.552,-5.003 -1.6,-2.334 -4.284,-3.869 -7.321,-3.869 -4.892,0 -8.873,3.98 -8.873,8.872 0,3.738 2.327,6.937 5.607,8.242 1.012,0.403 2.112,0.631 3.266,0.631 4.893,-0.001 8.873,-3.981 8.873,-8.873 z"
       inkscape:connector-curvature="0"
       style="fill:none" /><path
       id="XMLID_9_"
       class="st1"
       d="m 24.58,95.149 c 0,-1.855 -0.574,-3.577 -1.552,-5.003 -1.6,-2.334 -4.284,-3.869 -7.321,-3.869 -4.892,0 -8.873,3.98 -8.873,8.872 0,3.738 2.327,6.937 5.607,8.242 1.012,0.403 2.112,0.631 3.266,0.631 4.893,-0.001 8.873,-3.981 8.873,-8.873 z"
       inkscape:connector-curvature="0"
       style="fill:none" /><path
       id="XMLID_187_"
       class="st1"
       d="m 22.692,91.436 c 0.125,-0.418 0.243,-0.852 0.336,-1.29 -1.6,-2.334 -4.284,-3.869 -7.321,-3.869 -4.892,0 -8.873,3.98 -8.873,8.872 0,3.738 2.327,6.937 5.607,8.242 1.821,-0.768 3.623,-1.577 5.128,-2.841 2.708,-2.274 4.112,-5.725 5.123,-9.114 z"
       inkscape:connector-curvature="0"
       style="fill:none" /><path
       id="path4621"
       d="M 15.707031 79.441406 C 7.0460321 79.441406 0 86.487437 0 95.148438 C 0.09821144 106.04543 6.8097471 110.51022 15.916016 110.90234 C 26.916758 110.89634 31.237946 103.30664 31.414062 95.148438 C 31.414062 86.487437 24.368031 79.441406 15.707031 79.441406 z M 15.707031 86.277344 C 18.744031 86.277344 21.427344 87.812484 23.027344 90.146484 C 24.004344 91.572484 24.580078 93.293437 24.580078 95.148438 C 24.580078 100.04044 20.600031 104.02148 15.707031 104.02148 C 14.553031 104.02048 13.453406 103.79267 12.441406 103.39062 C 9.1624074 102.08662 6.8339844 98.887434 6.8339844 95.148438 C 6.8339844 90.256438 10.814031 86.277344 15.707031 86.277344 z "
       style="fill:#414042" /><path
       id="XMLID_227_"
       class="st6"
       d="m 24.58,95.149 c 0,-1.855 -0.574,-3.577 -1.552,-5.003 -0.093,0.438 -0.211,0.872 -0.336,1.29 -1.011,3.389 -2.415,6.84 -5.123,9.114 -1.505,1.264 -3.307,2.073 -5.128,2.841 1.012,0.403 2.112,0.631 3.266,0.631 4.893,-0.001 8.873,-3.981 8.873,-8.873 z"
       inkscape:connector-curvature="0"
       style="fill:#899a30" /></g><g
     id="rightHand"
     inkscape:label="#g103"
     transform="translate(0.39062,-1.5022653)"><path
       id="XMLID_131_"
       class="st0"
       d="M 205.704,39.623 H 189.24 c -0.438,0 -0.795,0.357 -0.795,0.795 v 16.464 c 0,0.438 0.357,0.795 0.795,0.795 h 16.464 c 0.438,0 0.794,-0.357 0.794,-0.795 V 40.419 c 0.001,-0.439 -0.355,-0.796 -0.794,-0.796 z"
       inkscape:connector-curvature="0"
       style="fill:#bfd54c" /><path
       id="XMLID_33_"
       class="st1"
       d="M 205.704,39.623 H 189.24 c -0.438,0 -0.795,0.357 -0.795,0.795 v 16.464 c 0,0.438 0.357,0.795 0.795,0.795 h 16.464 c 0.438,0 0.794,-0.356 0.794,-0.795 V 40.419 c 0.001,-0.439 -0.355,-0.796 -0.794,-0.796 z"
       inkscape:connector-curvature="0"
       style="fill:none" /><path
       id="XMLID_13_"
       class="st1"
       d="M 205.704,39.623 H 189.24 c -0.438,0 -0.795,0.357 -0.795,0.795 v 16.464 c 0,0.438 0.357,0.795 0.795,0.795 h 16.464 c 0.438,0 0.794,-0.356 0.794,-0.795 V 40.419 c 0.001,-0.439 -0.355,-0.796 -0.794,-0.796 z"
       inkscape:connector-curvature="0"
       style="fill:none" /><path
       id="XMLID_16_"
       class="st1"
       d="m 189.241,57.677 h 1.126 c 0.092,-0.04 0.184,-0.083 0.275,-0.123 4.374,-1.92 8.638,-4.404 11.639,-8.12 2.175,-2.694 3.59,-5.985 4.099,-9.408 -0.138,-0.236 -0.383,-0.403 -0.675,-0.403 h -16.464 c -0.438,0 -0.795,0.357 -0.795,0.795 v 16.464 c 0,0.438 0.357,0.795 0.795,0.795 z"
       inkscape:connector-curvature="0"
       style="fill:none" /><path
       id="XMLID_107_"
       class="st1"
       d="m 205.704,39.623 h -8.38 c -0.567,0.047 -1.129,0.123 -1.684,0.254 -1.18,0.28 -2.286,0.801 -3.382,1.32 -0.46,0.217 -0.932,0.444 -1.277,0.817 -0.292,0.316 -0.474,0.715 -0.638,1.113 -0.91,2.199 -1.428,4.534 -1.898,6.87 v 6.885 c 0,0.438 0.357,0.795 0.795,0.795 h 1.126 15.338 c 0.438,0 0.794,-0.356 0.794,-0.795 V 40.419 c 0,-0.146 -0.05,-0.275 -0.119,-0.393 -0.137,-0.236 -0.382,-0.403 -0.675,-0.403 z"
       inkscape:connector-curvature="0"
       style="fill:none" /><path
       id="XMLID_130_"
       class="st2"
       d="m 190.982,42.014 c 0.345,-0.373 0.817,-0.599 1.277,-0.817 1.096,-0.518 2.202,-1.04 3.382,-1.32 0.554,-0.131 1.117,-0.207 1.684,-0.254 h -8.084 c -0.438,0 -0.795,0.357 -0.795,0.795 v 9.578 c 0.471,-2.336 0.988,-4.671 1.898,-6.87 0.164,-0.397 0.346,-0.797 0.638,-1.112 z"
       inkscape:connector-curvature="0"
       style="fill:#f0fcb4" /><path
       id="XMLID_172_"
       class="st1"
       d="m 205.704,39.623 h -8.38 -8.084 c -0.438,0 -0.795,0.357 -0.795,0.795 v 9.578 6.885 c 0,0.438 0.357,0.795 0.795,0.795 h 1.126 15.338 c 0.438,0 0.794,-0.356 0.794,-0.795 V 40.419 c 0,-0.146 -0.05,-0.275 -0.119,-0.393 -0.137,-0.236 -0.382,-0.403 -0.675,-0.403 z"
       inkscape:connector-curvature="0"
       style="fill:none" /><path
       id="XMLID_154_"
       class="st1"
       d="m 205.704,39.623 h -8.38 -8.084 c -0.438,0 -0.795,0.357 -0.795,0.795 v 9.578 6.885 c 0,0.438 0.357,0.795 0.795,0.795 h 1.126 15.338 c 0.438,0 0.794,-0.356 0.794,-0.795 V 40.419 c 0,-0.146 -0.05,-0.275 -0.119,-0.393 -0.137,-0.236 -0.382,-0.403 -0.675,-0.403 z"
       inkscape:connector-curvature="0"
       style="fill:none" /><path
       id="XMLID_18_"
       class="st1"
       d="m 205.704,39.623 h -8.38 -8.084 c -0.438,0 -0.795,0.357 -0.795,0.795 v 9.578 6.885 c 0,0.438 0.357,0.795 0.795,0.795 h 1.126 15.338 c 0.438,0 0.794,-0.356 0.794,-0.795 V 40.419 c 0,-0.146 -0.05,-0.275 -0.119,-0.393 -0.137,-0.236 -0.382,-0.403 -0.675,-0.403 z"
       inkscape:connector-curvature="0"
       style="fill:none" /><path
       id="XMLID_189_"
       class="st1"
       d="m 202.281,49.434 c 2.175,-2.694 3.59,-5.985 4.099,-9.408 -0.138,-0.236 -0.383,-0.403 -0.675,-0.403 h -8.38 -8.084 c -0.438,0 -0.795,0.357 -0.795,0.795 v 9.578 6.885 c 0,0.438 0.357,0.795 0.795,0.795 h 1.126 c 0.092,-0.04 0.184,-0.083 0.275,-0.123 4.374,-1.919 8.638,-4.403 11.639,-8.119 z"
       inkscape:connector-curvature="0"
       style="fill:none" /><path
       id="path86"
       d="m 189.24023,32.789062 c -4.207,0 -7.63085,3.42386 -7.63085,7.63086 v 16.46289 c 0,4.207001 3.42385,7.628907 7.63085,7.628907 h 4.24415 12.21874 c 4.207,0 7.62891,-3.421906 7.62891,-7.628907 v -16.46289 c 0,-4.207 -3.42191,-7.63086 -7.62891,-7.63086 z m 0,6.833985 h 8.08399 8.38086 c 0.292,0 0.53878,0.168297 0.67578,0.404297 0.069,0.118 0.11719,0.246578 0.11719,0.392578 v 16.46289 c 0,0.438001 -0.35497,0.794922 -0.79297,0.794922 h -15.33789 -1.12696 c -0.438,0 -0.79492,-0.35592 -0.79492,-0.794922 v -6.886718 -9.576172 c 0,-0.438 0.35692,-0.796875 0.79492,-0.796875 z"
       style="fill:#414042"
       inkscape:connector-curvature="0" /><path
       id="XMLID_228_"
       class="st6"
       d="m 202.281,49.434 c -3.001,3.716 -7.265,6.2 -11.639,8.12 -0.091,0.04 -0.183,0.083 -0.275,0.123 h 15.338 c 0.438,0 0.794,-0.356 0.794,-0.795 V 40.419 c 0,-0.146 -0.05,-0.275 -0.119,-0.393 -0.509,3.423 -1.924,6.714 -4.099,9.408 z"
       inkscape:connector-curvature="0"
       style="fill:#899a30" /></g><g
     transform="translate(0,0)"
     inkscape:label="#g4063"
     id="antennaTop"><path
       id="XMLID_132_"
       class="st0"
       d="m 118.596,23.368 c 0.102,-0.19 0.181,-0.484 -0.031,-0.812 L 108.616,7.198 c -0.194,-0.3 -0.47,-0.363 -0.668,-0.363 -0.197,0 -0.473,0.063 -0.667,0.363 l -9.948,15.358 c -0.212,0.328 -0.135,0.623 -0.031,0.812 0.103,0.19 0.307,0.416 0.698,0.416 h 19.897 c 0.39,-10e-4 0.595,-0.227 0.699,-0.416 z"
       inkscape:connector-curvature="0"
       style="fill:#bfd54c" /><path
       id="XMLID_32_"
       class="st1"
       d="m 118.596,23.368 c 0.102,-0.19 0.181,-0.484 -0.031,-0.812 L 108.616,7.198 c -0.194,-0.3 -0.47,-0.363 -0.667,-0.363 -0.197,0 -0.473,0.063 -0.667,0.363 l -9.948,15.358 c -0.212,0.328 -0.135,0.623 -0.031,0.812 0.103,0.19 0.307,0.415 0.698,0.415 h 19.897 c 0.389,0 0.594,-0.226 0.698,-0.415 z"
       inkscape:connector-curvature="0"
       style="fill:none" /><path
       id="XMLID_6_"
       class="st1"
       d="m 118.596,23.368 c 0.102,-0.19 0.181,-0.484 -0.031,-0.812 L 108.616,7.198 c -0.194,-0.3 -0.47,-0.363 -0.667,-0.363 -0.197,0 -0.473,0.063 -0.667,0.363 l -9.948,15.358 c -0.212,0.328 -0.135,0.623 -0.031,0.812 0.103,0.19 0.307,0.415 0.698,0.415 h 19.897 c 0.389,0 0.594,-0.226 0.698,-0.415 z"
       inkscape:connector-curvature="0"
       style="fill:none" /><path
       id="XMLID_15_"
       class="st1"
       d="m 118.596,23.368 c 0.102,-0.19 0.181,-0.484 -0.031,-0.812 L 108.616,7.198 c -0.194,-0.3 -0.47,-0.363 -0.667,-0.363 -0.197,0 -0.473,0.063 -0.667,0.363 l -9.948,15.358 c -0.212,0.328 -0.135,0.623 -0.031,0.812 0.103,0.19 0.307,0.415 0.698,0.415 h 19.897 c 0.389,0 0.594,-0.226 0.698,-0.415 z"
       inkscape:connector-curvature="0"
       style="fill:none" /><path
       id="XMLID_8_"
       class="st1"
       d="m 118.596,23.368 c 0.102,-0.19 0.181,-0.484 -0.031,-0.812 L 108.616,7.198 c -0.194,-0.3 -0.47,-0.363 -0.667,-0.363 -0.197,0 -0.473,0.063 -0.667,0.363 l -9.948,15.358 c -0.212,0.328 -0.135,0.623 -0.031,0.812 0.103,0.19 0.307,0.415 0.698,0.415 h 19.897 c 0.389,0 0.594,-0.226 0.698,-0.415 z"
       inkscape:connector-curvature="0"
       style="fill:none" /><path
       id="XMLID_23_"
       class="st1"
       d="m 111.984,22.656 c 1.457,-0.288 3.157,-0.777 3.641,-2.181 0.307,-0.89 0.002,-1.862 -0.302,-2.753 -0.041,-0.119 -0.081,-0.238 -0.122,-0.357 L 108.615,7.198 c -0.194,-0.3 -0.47,-0.363 -0.667,-0.363 -0.197,0 -0.473,0.063 -0.667,0.363 l -9.948,15.358 c -0.212,0.328 -0.135,0.623 -0.031,0.812 0.103,0.19 0.307,0.415 0.698,0.415 h 8.282 c 1.901,-0.376 3.802,-0.751 5.702,-1.127 z"
       inkscape:connector-curvature="0"
       style="fill:none" /><path
       id="XMLID_68_"
       class="st1"
       d="m 118.596,23.368 c 0.102,-0.19 0.181,-0.484 -0.031,-0.812 l -3.363,-5.191 -2.848,-4.396 c -0.236,-0.16 -0.474,-0.318 -0.718,-0.464 -1.051,-0.632 -2.316,-1.088 -3.495,-0.752 -0.88,0.251 -1.58,0.904 -2.238,1.54 -2.459,2.379 -4.846,4.833 -7.156,7.356 -0.121,0.132 -0.264,0.265 -0.416,0.368 l -0.997,1.54 c -0.212,0.328 -0.135,0.623 -0.031,0.812 0.103,0.19 0.307,0.415 0.698,0.415 h 8.282 11.615 c 0.389,-10e-4 0.594,-0.227 0.698,-0.416 z"
       inkscape:connector-curvature="0"
       style="fill:none" /><path
       id="XMLID_161_"
       class="st2"
       d="m 105.902,13.292 c 0.658,-0.636 1.358,-1.289 2.238,-1.54 1.179,-0.336 2.444,0.12 3.495,0.752 0.244,0.147 0.482,0.304 0.718,0.464 l -3.738,-5.771 c -0.194,-0.3 -0.47,-0.363 -0.667,-0.363 -0.197,0 -0.473,0.063 -0.667,0.363 L 98.33,21.016 c 0.152,-0.103 0.295,-0.235 0.416,-0.368 2.311,-2.524 4.698,-4.977 7.156,-7.356 z"
       inkscape:connector-curvature="0"
       style="fill:#f0fcb4" /><path
       id="XMLID_10_"
       class="st1"
       d="m 117.897,23.783 c 0.391,0 0.595,-0.226 0.699,-0.415 0.102,-0.19 0.181,-0.484 -0.031,-0.812 l -3.363,-5.191 -2.848,-4.396 -3.738,-5.771 c -0.194,-0.3 -0.47,-0.363 -0.667,-0.363 -0.197,0 -0.473,0.063 -0.667,0.363 l -8.951,13.819 -0.997,1.54 c -0.212,0.328 -0.135,0.623 -0.031,0.812 0.103,0.19 0.307,0.415 0.698,0.415 h 8.282 11.614 z"
       inkscape:connector-curvature="0"
       style="fill:none" /><path
       id="XMLID_190_"
       class="st1"
       d="m 115.626,20.474 c 0.307,-0.89 0.002,-1.862 -0.302,-2.753 -0.041,-0.119 -0.081,-0.238 -0.122,-0.357 l -2.848,-4.396 -3.738,-5.771 c -0.194,-0.3 -0.47,-0.363 -0.667,-0.363 -0.197,0 -0.473,0.063 -0.667,0.363 l -8.951,13.819 -0.997,1.54 c -0.212,0.328 -0.135,0.623 -0.031,0.812 0.103,0.19 0.307,0.415 0.698,0.415 h 8.282 c 1.901,-0.376 3.802,-0.752 5.703,-1.128 1.456,-0.288 3.155,-0.776 3.64,-2.181 z"
       inkscape:connector-curvature="0"
       style="fill:none" /><path
       style="fill:#414042"
       d="m 107.94727,0 c -2.597,0 -4.98935,1.3024219 -6.40235,3.4824219 L 91.595703,18.839844 c -1.521,2.348 -1.635828,5.334969 -0.298828,7.792968 1.337,2.458 3.905125,3.984375 6.703125,3.984376 h 5.96094 7.97461 5.96093 c 2.798,0 5.36713,-1.526376 6.70313,-3.984376 1.337,-2.458 1.22317,-5.443015 -0.29883,-7.791015 L 114.35156,3.4824219 C 112.93956,1.3014219 110.54527,0 107.94727,0 Z m 0,6.8339844 c 0.197,0 0.47396,0.063281 0.66796,0.3632812 l 3.73829,5.7714844 2.84765,4.394531 3.36328,5.191407 c 0.212,0.327999 0.13325,0.6225 0.0312,0.8125 -0.103,0.19 -0.30822,0.414062 -0.69922,0.414062 H 106.2812 v 0.002 H 98 c -0.39,0 -0.594266,-0.227016 -0.697266,-0.416015 -0.103,-0.189001 -0.182703,-0.482547 0.0293,-0.810547 l 0.998047,-1.541016 8.951169,-13.8183594 c 0.194,-0.3 0.46902,-0.3632812 0.66602,-0.3632812 z"
       id="path4042"
       inkscape:connector-curvature="0" /><path
       id="XMLID_229_"
       class="st6"
       d="m 118.596,23.368 c 0.102,-0.19 0.181,-0.484 -0.031,-0.812 l -3.363,-5.191 c 0.041,0.119 0.081,0.238 0.122,0.357 0.304,0.891 0.609,1.863 0.302,2.753 -0.484,1.404 -2.184,1.893 -3.641,2.181 -1.901,0.376 -3.802,0.752 -5.703,1.128 h 11.615 c 0.39,-10e-4 0.595,-0.227 0.699,-0.416 z"
       inkscape:connector-curvature="0"
       style="fill:#899a30" /></g><path
     style="fill:#ffffff"
     inkscape:connector-curvature="0"
     d="m 133.775,123.163 c -18.072,5.043 -36.145,5.043 -54.217,0 -4.775,-1.332 -8.104,-5.649 -8.104,-10.607 V 98.134 c 0,-4.075 2.272,-7.791 5.86,-9.723 18.29,-9.85 37.783,-9.75 58.477,0.3 3.748,1.82 6.088,5.669 6.088,9.836 v 14.009 c 0,4.958 -3.329,9.275 -8.104,10.607 z"
     class="st5"
     id="XMLID_164_" /><circle
     style="fill:#414042"
     r="5.9640002"
     cy="104.021"
     cx="93.973"
     class="st4"
     id="leftEye"
     inkscape:label="#XMLID_108_" /><circle
     style="fill:#414042"
     r="5.9640002"
     cy="104.021"
     cx="123.803"
     class="st4"
     id="rightEye"
     inkscape:label="#XMLID_99_" /><g
     id="XMLID_20_">
		<path
   style="fill:#e8e8e8"
   inkscape:connector-curvature="0"
   d="m 95.438,123.62 c 12.55,1.478 25.152,0.491 37.629,-2.992 h 0.001 c 3.638,-1.015 6.179,-4.334 6.179,-8.071 v -5.351 c -4.313,4.978 -15.939,14.203 -43.809,16.414 z"
   class="st7"
   id="XMLID_94_" />
		<path
   style="fill:#e8e8e8"
   inkscape:connector-curvature="0"
   d="m 134.641,91.079 c -10.156,-4.933 -19.872,-7.4 -29.28,-7.4 -9.184,0 -18.073,2.35 -26.799,7.049 -1.035,0.558 -1.923,1.305 -2.629,2.184 26.754,-11.279 58.708,-1.833 58.708,-1.833 z"
   class="st7"
   id="XMLID_22_" />
	</g><path
     style="fill:#414042"
     inkscape:connector-curvature="0"
     d="m 136.942,86.343 c -21.4,-10.394 -41.883,-10.477 -60.876,-0.25 -4.469,2.406 -7.244,7.02 -7.244,12.04 v 14.423 c 0,6.09 4.124,11.495 10.029,13.142 9.229,2.575 18.523,3.863 27.816,3.863 9.294,0 18.587,-1.288 27.815,-3.863 5.905,-1.647 10.03,-7.052 10.03,-13.142 v -14.01 c 0,-5.179 -2.972,-9.97 -7.57,-12.203 z M 74.086,112.556 V 98.133 c 0,-1.925 0.67,-3.756 1.847,-5.221 0.706,-0.879 1.594,-1.627 2.629,-2.184 8.726,-4.699 17.615,-7.049 26.799,-7.049 9.407,0 19.124,2.467 29.28,7.4 2.798,1.358 4.606,4.289 4.606,7.468 v 8.659 5.351 c 0,3.737 -2.541,7.056 -6.179,8.071 h -0.001 c -12.477,3.483 -25.079,4.471 -37.629,2.992 -5.07,-0.597 -10.131,-1.586 -15.172,-2.992 -3.639,-1.016 -6.18,-4.335 -6.18,-8.072 z"
     class="st4"
     id="XMLID_93_" /><path
     inkscape:label="#XMLID_217_-3"
     sodipodi:nodetypes="csscc"
     style="fill:#414042"
     inkscape:connector-curvature="0"
     d="m 103,28 c 0,0 0,14 0,23 h 10 c 0,-10 0,-23 0,-23 z"
     class="st4"
     id="wire" /><path
     style="fill:#414042;fill-opacity:1;stroke:none;stroke-width:1px;stroke-linecap:butt;stroke-linejoin:miter;stroke-opacity:1"
     d="m 160,106 0,9.5 c 23.5,0 42.8,-21.2 42.7,-54 l -8.2,0 c 0,31.7 -15,43 -34.5,44 z"
     id="rightArm"
     inkscape:connector-curvature="0"
     inkscape:label="#path106"
     sodipodi:nodetypes="cccccc" /><path
     style="fill:#414042;fill-opacity:1;stroke:none;stroke-width:1px;stroke-linecap:butt;stroke-linejoin:miter;stroke-opacity:1"
     d="m 56,139.4 v 8.25 C 28.6,147 16.4,131 12.3,107.8 l 8,0 c 5,21.2 18,31.4 35.8,31.7 z"
     id="leftArm"
     inkscape:connector-curvature="0"
     sodipodi:nodetypes="ccccc"
     inkscape:label="#path4616" /></g>
</svg>